<?xml version="1.0" encoding="UTF-8" standalone="no"?>
<svg
   xmlns:dc="http://purl.org/dc/elements/1.1/"
   xmlns:cc="http://creativecommons.org/ns#"
   xmlns:rdf="http://www.w3.org/1999/02/22-rdf-syntax-ns#"
   xmlns:svg="http://www.w3.org/2000/svg"
   xmlns="http://www.w3.org/2000/svg"
   xmlns:sodipodi="http://sodipodi.sourceforge.net/DTD/sodipodi-0.dtd"
   xmlns:inkscape="http://www.inkscape.org/namespaces/inkscape"
   inkscape:export-ydpi="96"
   inkscape:export-xdpi="96"
   inkscape:export-filename="D:\Users\caita\OneDrive\Viper Tec\Designer\Logos e folders\logoclean.png"
   sodipodi:docname="logovt.svg"
   inkscape:version="1.0 (4035a4fb49, 2020-05-01)"
   id="svg295"
   version="1.1"
   viewBox="0 0 1250.46 149.679"
   height="149.679mm"
   width="1250.46mm">
  <defs
     id="defs289" />
  <sodipodi:namedview
     showgrid="false"
     inkscape:document-rotation="0"
     inkscape:current-layer="layer1"
     inkscape:document-units="mm"
     inkscape:cy="834.20408"
     inkscape:cx="1329.7665"
     inkscape:zoom="0.24748737"
     inkscape:pageshadow="2"
     inkscape:pageopacity="0.0"
     borderopacity="1.0"
     bordercolor="#666666"
     pagecolor="#ffffff"
     id="base"
     showguides="true"
     inkscape:guide-bbox="true">
    <sodipodi:guide
       position="280.45834,180.39881"
       orientation="0,-1"
       id="guide21" />
    <sodipodi:guide
       position="166.30953,47.351192"
       orientation="0,-1"
       id="guide23" />
  </sodipodi:namedview>
  <metadata
     id="metadata292">
    <rdf:RDF>
      <cc:Work
         rdf:about="">
        <dc:format>image/svg+xml</dc:format>
        <dc:type
           rdf:resource="http://purl.org/dc/dcmitype/StillImage" />
        <dc:title />
      </cc:Work>
    </rdf:RDF>
  </metadata>
  <g
     id="layer1"
     inkscape:groupmode="layer"
     inkscape:label="Layer 1">
    <text
       id="text97"
       y="132.65028"
       x="734.64496"
       style="font-style:normal;font-weight:normal;font-size:253.213px;line-height:1.25;font-family:sans-serif;fill:#ff0000;fill-opacity:1;stroke:none;stroke-width:1.31883"
       xml:space="preserve"
       transform="scale(0.94597006,1.0571159)"><tspan
         style="font-style:normal;font-variant:normal;font-weight:normal;font-stretch:normal;font-size:253.213px;font-family:'Techno Hideo';-inkscape-font-specification:'Techno Hideo';fill:#ff0000;stroke-width:1.31883"
         y="132.65028"
         x="734.64496"
         id="tspan95"
         sodipodi:role="line">Tec</tspan></text>
    <text
       xml:space="preserve"
       style="font-style:normal;font-weight:normal;font-size:243.314px;line-height:1.25;font-family:sans-serif;fill:#000000;fill-opacity:1;stroke:none;stroke-width:1.26725"
       x="7.6375427"
       y="127.40009"
       id="text93"
       transform="scale(0.90893268,1.1001915)"><tspan
         sodipodi:role="line"
         id="tspan91"
         x="7.6375427"
         y="127.40009"
         style="font-style:normal;font-variant:normal;font-weight:normal;font-stretch:normal;font-size:243.314px;font-family:'Techno Hideo';-inkscape-font-specification:'Techno Hideo';stroke-width:1.26725">Viper</tspan></text>
    <g
       id="g287"
       transform="matrix(1.401272,0,0,1.401272,413.85617,-421.46132)">
      <path
         inkscape:connector-curvature="0"
         d="m 589.6123,347.04138 h -53.55218 c -2.46484,0 -4.46386,1.92382 -4.46386,4.30077 v 43.04288 c 0,2.37499 1.99902,4.30467 4.46386,4.30467 h 53.55218 c 2.4608,0 4.46792,-1.92968 4.46792,-4.30467 v -43.04288 c 0,-2.37695 -2.00914,-4.30077 -4.46792,-4.30077 z m -43.51051,3.23046 c 1.22939,0 2.23193,0.95898 2.23193,2.15429 0,1.18554 -1.00052,2.14453 -2.23193,2.14453 -1.23749,0 -2.23598,-0.95703 -2.23598,-2.14453 0.002,-1.19336 0.99849,-2.15429 2.23598,-2.15429 z m -6.69782,0 c 1.23141,0 2.23193,0.95898 2.23193,2.15429 0,1.18554 -0.99849,2.14453 -2.23193,2.14453 -1.23344,0 -2.23396,-0.95703 -2.23396,-2.14453 0.002,-1.19336 1.00052,-2.15429 2.23396,-2.15429 z m 50.20833,44.11514 h -53.55218 v -36.54094 h 53.55218 z"
         id="path278"
         style="fill:#000000;stroke-width:1.98891" />
      <path
         d="m 553.36063,367.99055 v 0.0566 l -11.08067,4.56249 v 3.04687 l 14.33135,-6.3203 v -2.64453 l -14.33135,-6.32029 v 3.04882 z"
         style="fill:#ff0000;stroke-width:1.98891"
         id="path280" />
      <path
         d="m 563.35774,366.56477 h 7.80771 v 2.90234 h -7.80771 z"
         style="fill:#ff0000;stroke-width:1.98891"
         id="path282" />
    </g>
  </g>
</svg>
