<?xml version="1.0" encoding="UTF-8" standalone="no"?>
<svg
   xmlns:dc="http://purl.org/dc/elements/1.1/"
   xmlns:cc="http://creativecommons.org/ns#"
   xmlns:rdf="http://www.w3.org/1999/02/22-rdf-syntax-ns#"
   xmlns:svg="http://www.w3.org/2000/svg"
   xmlns="http://www.w3.org/2000/svg"
   xmlns:sodipodi="http://sodipodi.sourceforge.net/DTD/sodipodi-0.dtd"
   xmlns:inkscape="http://www.inkscape.org/namespaces/inkscape"
   sodipodi:docname="logo2020.svg"
   inkscape:version="1.0 (4035a4fb49, 2020-05-01)"
   id="svg1057"
   version="1.1"
   viewBox="0 0 634.99998 185.20833"
   height="700"
   width="2400">
  <defs
     id="defs1051" />
  <sodipodi:namedview
     inkscape:document-rotation="0"
     inkscape:window-maximized="1"
     inkscape:window-y="-8"
     inkscape:window-x="-8"
     inkscape:window-height="1017"
     inkscape:window-width="1920"
     units="px"
     showgrid="false"
     inkscape:current-layer="layer1"
     inkscape:document-units="px"
     inkscape:cy="545.4736"
     inkscape:cx="1411.2831"
     inkscape:zoom="0.49497475"
     inkscape:pageshadow="2"
     inkscape:pageopacity="0.0"
     borderopacity="1.0"
     bordercolor="#666666"
     pagecolor="#ffffff"
     id="base" />
  <metadata
     id="metadata1054">
    <rdf:RDF>
      <cc:Work
         rdf:about="">
        <dc:format>image/svg+xml</dc:format>
        <dc:type
           rdf:resource="http://purl.org/dc/dcmitype/StillImage" />
        <dc:title></dc:title>
      </cc:Work>
    </rdf:RDF>
  </metadata>
  <g
     inkscape:label="sombra"
     id="layer2"
     inkscape:groupmode="layer">
    <g
       style="fill:#ffffff"
       transform="translate(21.739046,-270.54167)"
       id="g1978">
      <g
         aria-label="Viper"
         transform="matrix(9.1547885,0,0,13.485279,-232.10014,-2643.3442)"
         id="g1950"
         style="font-style:normal;font-variant:normal;font-weight:normal;font-stretch:normal;font-size:6.67385px;line-height:0;font-family:'Techno Hideo';-inkscape-font-specification:'Techno Hideo';letter-spacing:0px;word-spacing:0px;fill:#ffffff;fill-opacity:1;stroke:none;stroke-width:0.556154">
        <path
           d="m 30.085165,223.77755 v -4.75486 h 1.459913 v 3.29494 z m -0.141936,0.49677 5.25163,-5.25163 h 2.169592 l -5.251629,5.25163 z"
           style="font-size:10.3816px;fill:#ffffff;stroke-width:0.556154"
           id="path1940" />
        <path
           d="m 37.800397,224.27432 v -5.1908 h 1.439636 v 5.1908 z"
           style="font-size:10.3816px;fill:#ffffff;stroke-width:0.556154"
           id="path1942" />
        <path
           d="m 39.757086,224.27432 v -5.1908 h 7.198179 l -3.315218,3.31522 h -2.007379 v -1.43964 h 1.307838 l 0.425808,-0.43594 H 41.20686 v 3.75116 z"
           style="font-size:10.3816px;fill:#ffffff;stroke-width:0.556154"
           id="path1944" />
        <path
           d="m 49.368177,222.39874 v -1.43964 h 2.696783 v 1.43964 z m -1.865444,1.87558 v -3.88296 l 1.2977,-1.30784 h 5.140109 v 1.43964 h -4.998173 v 2.31153 h 5.12997 l -1.439636,1.43963 z"
           style="font-size:10.3816px;fill:#ffffff;stroke-width:0.556154"
           id="path1946" />
        <path
           d="m 54.599529,224.27432 v -5.1908 h 4.704163 l -1.439636,1.43964 h -1.814753 v 3.75116 z m 5.059003,0 -2.595401,-2.5954 2.595401,-2.5954 h 2.139177 l -2.5954,2.5954 2.5954,2.5954 z"
           style="font-size:10.3816px;fill:#ffffff;stroke-width:0.556154"
           id="path1948" />
      </g>
      <g
         aria-label=" TEc"
         transform="matrix(9.0710317,0,0,13.609795,-218.38607,-2643.3877)"
         id="g1958"
         style="font-style:normal;font-variant:normal;font-weight:normal;font-stretch:normal;font-size:9.92489px;line-height:0;font-family:'Qbicle 1 BRK';-inkscape-font-specification:'Qbicle 1 BRK';letter-spacing:0px;word-spacing:0px;fill:#ffffff;fill-opacity:1;stroke:none;stroke-width:0.827074">
        <path
           d="m 63.444847,222.10292 v -3.20814 h 1.395687 v 3.20814 z m -2.413377,-3.62491 v -1.39569 h 6.34844 l -1.395687,1.39569 z"
           style="font-style:normal;font-variant:normal;font-weight:normal;font-stretch:normal;font-family:'Techno Hideo';-inkscape-font-specification:'Techno Hideo';fill:#ffffff;stroke-width:0.827074"
           id="path1952" />
        <path
           d="m 68.378215,220.29047 v -1.39569 h 2.607222 v 1.39569 z m -1.802764,1.81245 v -3.75091 l 1.259996,-1.26969 h 4.962445 v 1.39569 h -4.826753 v 2.22922 h 4.952753 l -1.395688,1.39569 z"
           style="font-style:normal;font-variant:normal;font-weight:normal;font-stretch:normal;font-family:'Techno Hideo';-inkscape-font-specification:'Techno Hideo';fill:#ffffff;stroke-width:0.827074"
           id="path1954" />
        <path
           d="m 74.62004,222.10292 -1.250304,-1.2503 v -3.71214 h 6.164287 v 1.32784 l -1.385995,1.3763 v -1.32784 h -3.392296 v 2.20984 h 4.778291 v 1.3763 z"
           style="font-style:normal;font-variant:normal;font-weight:normal;font-stretch:normal;font-family:'Techno Hideo';-inkscape-font-specification:'Techno Hideo';fill:#ffffff;stroke-width:0.827074"
           id="path1956" />
      </g>
      <path
         inkscape:connector-curvature="0"
         d="m 570.56229,352.33305 h -53.55218 c -2.46484,0 -4.46386,1.92382 -4.46386,4.30077 v 43.04288 c 0,2.37499 1.99902,4.30467 4.46386,4.30467 h 53.55218 c 2.4608,0 4.46792,-1.92968 4.46792,-4.30467 v -43.04288 c 0,-2.37695 -2.00914,-4.30077 -4.46792,-4.30077 z m -43.51051,3.23046 c 1.22939,0 2.23193,0.95898 2.23193,2.15429 0,1.18554 -1.00052,2.14453 -2.23193,2.14453 -1.23749,0 -2.23598,-0.95703 -2.23598,-2.14453 0.002,-1.19336 0.99849,-2.15429 2.23598,-2.15429 z m -6.69782,0 c 1.23141,0 2.23193,0.95898 2.23193,2.15429 0,1.18554 -0.99849,2.14453 -2.23193,2.14453 -1.23344,0 -2.23396,-0.95703 -2.23396,-2.14453 0.002,-1.19336 1.00052,-2.15429 2.23396,-2.15429 z m 50.20833,44.11514 h -53.55218 v -36.54094 h 53.55218 z"
         id="path1960"
         style="fill:#ffffff;stroke-width:1.98891" />
      <path
         d="m 534.31062,373.28222 v 0.0566 l -11.08067,4.56249 v 3.04687 l 14.33135,-6.3203 v -2.64453 l -14.33135,-6.32029 v 3.04882 z"
         style="fill:#ffffff;stroke-width:1.98891"
         id="path1962" />
      <path
         d="m 544.30773,371.85644 h 7.80771 v 2.90234 h -7.80771 z"
         style="fill:#ffffff;stroke-width:1.98891"
         id="path1964" />
      <g
         style="fill:#ffffff"
         transform="matrix(11.111025,0,0,11.111025,-633.17112,-301.32246)"
         inkscape:export-ydpi="242"
         inkscape:export-xdpi="242"
         id="g1970">
        <path
           id="path1966"
           style="fill:#ffffff;fill-opacity:1;stroke:#000000;stroke-width:0;stroke-miterlimit:4;stroke-dasharray:none"
           d="m 67.291237,62.251366 h 35.012313 v 1.202712 H 67.291237 Z" />
        <path
           id="path1968"
           style="fill:#ffffff;fill-opacity:1;stroke:#000000;stroke-width:0;stroke-miterlimit:4;stroke-dasharray:none"
           d="m 67.752823,62.743629 a 1.2027128,1.2027128 0 0 1 -1.202713,1.202713 1.2027128,1.2027128 0 0 1 -1.202713,-1.202713 1.2027128,1.2027128 0 0 1 1.202713,-1.202712 1.2027128,1.2027128 0 0 1 1.202713,1.202712" />
      </g>
      <path
         transform="matrix(0.26458333,0,0,0.26458333,0,267.89582)"
         d="m 1645.6191,50.9375 a 50.507232,50.507232 0 0 0 -46.082,29.833984 H 144.17383 V 131.2793 H 1604.8672 a 50.507232,50.507232 0 0 0 40.7519,20.67382 50.507232,50.507232 0 0 0 50.5079,-50.50781 50.507232,50.507232 0 0 0 -50.5079,-50.50781 z"
         style="fill:#ffffff;fill-opacity:1;stroke:#000000;stroke-width:0;stroke-miterlimit:4;stroke-dasharray:none"
         id="path1972" />
      <text
         transform="matrix(1.0227683,0.00474378,-0.00496237,0.97771553,0,0)"
         id="text1976"
         y="448.27362"
         x="30.388279"
         style="font-style:normal;font-variant:normal;font-weight:normal;font-stretch:normal;font-size:36.081px;line-height:0;font-family:'Techno Hideo';-inkscape-font-specification:'Techno Hideo';letter-spacing:0px;word-spacing:0px;display:inline;fill:#ffffff;fill-opacity:1;stroke:none;stroke-width:3.00676"
         xml:space="preserve"><tspan
           dy="2.1476865"
           dx="7.6139722"
           style="font-style:normal;font-variant:normal;font-weight:normal;font-stretch:normal;font-family:Impact;-inkscape-font-specification:Impact;letter-spacing:2.70609px;fill:#ffffff;stroke-width:3.00676"
           y="448.27362"
           x="30.388279"
           id="tspan1974"
           sodipodi:role="line">Descomplicando a Tecnologia</tspan></text>
    </g>
  </g>
  <g
     transform="translate(0,-267.89582)"
     id="layer1"
     inkscape:groupmode="layer"
     inkscape:label="principal">
    <g
       transform="translate(19.050006,-5.2916667)"
       id="g1938">
      <g
         style="font-style:normal;font-variant:normal;font-weight:normal;font-stretch:normal;font-size:6.67385px;line-height:0;font-family:'Techno Hideo';-inkscape-font-specification:'Techno Hideo';letter-spacing:0px;word-spacing:0px;fill:#000000;fill-opacity:1;stroke:none;stroke-width:0.556154"
         id="text1705"
         transform="matrix(9.1547885,0,0,13.485279,-232.10014,-2643.3442)"
         aria-label="Viper">
        <path
           id="path1065"
           style="font-size:10.3816px;fill:#000000;stroke-width:0.556154"
           d="m 30.085165,223.77755 v -4.75486 h 1.459913 v 3.29494 z m -0.141936,0.49677 5.25163,-5.25163 h 2.169592 l -5.251629,5.25163 z" />
        <path
           id="path1067"
           style="font-size:10.3816px;fill:#000000;stroke-width:0.556154"
           d="m 37.800397,224.27432 v -5.1908 h 1.439636 v 5.1908 z" />
        <path
           id="path1069"
           style="font-size:10.3816px;fill:#000000;stroke-width:0.556154"
           d="m 39.757086,224.27432 v -5.1908 h 7.198179 l -3.315218,3.31522 h -2.007379 v -1.43964 h 1.307838 l 0.425808,-0.43594 H 41.20686 v 3.75116 z" />
        <path
           id="path1071"
           style="font-size:10.3816px;fill:#000000;stroke-width:0.556154"
           d="m 49.368177,222.39874 v -1.43964 h 2.696783 v 1.43964 z m -1.865444,1.87558 v -3.88296 l 1.2977,-1.30784 h 5.140109 v 1.43964 h -4.998173 v 2.31153 h 5.12997 l -1.439636,1.43963 z" />
        <path
           id="path1073"
           style="font-size:10.3816px;fill:#000000;stroke-width:0.556154"
           d="m 54.599529,224.27432 v -5.1908 h 4.704163 l -1.439636,1.43964 h -1.814753 v 3.75116 z m 5.059003,0 -2.595401,-2.5954 2.595401,-2.5954 h 2.139177 l -2.5954,2.5954 2.5954,2.5954 z" />
      </g>
      <g
         style="font-style:normal;font-variant:normal;font-weight:normal;font-stretch:normal;font-size:9.92489px;line-height:0;font-family:'Qbicle 1 BRK';-inkscape-font-specification:'Qbicle 1 BRK';letter-spacing:0px;word-spacing:0px;fill:#ff0000;fill-opacity:1;stroke:none;stroke-width:0.827074"
         id="text2879"
         transform="matrix(9.0710317,0,0,13.609795,-218.38607,-2643.3877)"
         aria-label=" TEc">
        <path
           id="path1076"
           style="font-style:normal;font-variant:normal;font-weight:normal;font-stretch:normal;font-family:'Techno Hideo';-inkscape-font-specification:'Techno Hideo';fill:#ff0000;stroke-width:0.827074"
           d="m 63.444847,222.10292 v -3.20814 h 1.395687 v 3.20814 z m -2.413377,-3.62491 v -1.39569 h 6.34844 l -1.395687,1.39569 z" />
        <path
           id="path1078"
           style="font-style:normal;font-variant:normal;font-weight:normal;font-stretch:normal;font-family:'Techno Hideo';-inkscape-font-specification:'Techno Hideo';fill:#ff0000;stroke-width:0.827074"
           d="m 68.378215,220.29047 v -1.39569 h 2.607222 v 1.39569 z m -1.802764,1.81245 v -3.75091 l 1.259996,-1.26969 h 4.962445 v 1.39569 h -4.826753 v 2.22922 h 4.952753 l -1.395688,1.39569 z" />
        <path
           id="path1080"
           style="font-style:normal;font-variant:normal;font-weight:normal;font-stretch:normal;font-family:'Techno Hideo';-inkscape-font-specification:'Techno Hideo';fill:#ff0000;stroke-width:0.827074"
           d="m 74.62004,222.10292 -1.250304,-1.2503 v -3.71214 h 6.164287 v 1.32784 l -1.385995,1.3763 v -1.32784 h -3.392296 v 2.20984 h 4.778291 v 1.3763 z" />
      </g>
      <path
         style="fill:#000000;stroke-width:1.98891"
         id="path2196"
         d="m 570.56229,352.33305 h -53.55218 c -2.46484,0 -4.46386,1.92382 -4.46386,4.30077 v 43.04288 c 0,2.37499 1.99902,4.30467 4.46386,4.30467 h 53.55218 c 2.4608,0 4.46792,-1.92968 4.46792,-4.30467 v -43.04288 c 0,-2.37695 -2.00914,-4.30077 -4.46792,-4.30077 z m -43.51051,3.23046 c 1.22939,0 2.23193,0.95898 2.23193,2.15429 0,1.18554 -1.00052,2.14453 -2.23193,2.14453 -1.23749,0 -2.23598,-0.95703 -2.23598,-2.14453 0.002,-1.19336 0.99849,-2.15429 2.23598,-2.15429 z m -6.69782,0 c 1.23141,0 2.23193,0.95898 2.23193,2.15429 0,1.18554 -0.99849,2.14453 -2.23193,2.14453 -1.23344,0 -2.23396,-0.95703 -2.23396,-2.14453 0.002,-1.19336 1.00052,-2.15429 2.23396,-2.15429 z m 50.20833,44.11514 h -53.55218 v -36.54094 h 53.55218 z"
         inkscape:connector-curvature="0" />
      <path
         id="polygon2198"
         style="fill:#ff0000;stroke-width:1.98891"
         d="m 534.31062,373.28222 v 0.0566 l -11.08067,4.56249 v 3.04687 l 14.33135,-6.3203 v -2.64453 l -14.33135,-6.32029 v 3.04882 z" />
      <path
         id="rect2200"
         style="fill:#ff0000;stroke-width:1.98891"
         d="m 544.30773,371.85644 h 7.80771 v 2.90234 h -7.80771 z" />
      <g
         id="g3050"
         inkscape:export-xdpi="242"
         inkscape:export-ydpi="242"
         transform="matrix(11.111025,0,0,11.111025,-633.17112,-301.32246)">
        <path
           d="m 67.291237,62.251366 h 35.012313 v 1.202712 H 67.291237 Z"
           style="fill:#ff0000;fill-opacity:1;stroke:#000000;stroke-width:0;stroke-miterlimit:4;stroke-dasharray:none"
           id="rect3038" />
        <path
           d="m 67.752823,62.743629 a 1.2027128,1.2027128 0 0 1 -1.202713,1.202713 1.2027128,1.2027128 0 0 1 -1.202713,-1.202713 1.2027128,1.2027128 0 0 1 1.202713,-1.202712 1.2027128,1.2027128 0 0 1 1.202713,1.202712"
           style="fill:#ff0000;fill-opacity:1;stroke:#000000;stroke-width:0;stroke-miterlimit:4;stroke-dasharray:none"
           id="path3042" />
      </g>
      <path
         id="rect3044"
         style="fill:#000000;fill-opacity:1;stroke:#000000;stroke-width:0;stroke-miterlimit:4;stroke-dasharray:none"
         d="m 1645.6191,50.9375 a 50.507232,50.507232 0 0 0 -46.082,29.833984 H 144.17383 V 131.2793 H 1604.8672 a 50.507232,50.507232 0 0 0 40.7519,20.67382 50.507232,50.507232 0 0 0 50.5079,-50.50781 50.507232,50.507232 0 0 0 -50.5079,-50.50781 z"
         transform="matrix(0.26458333,0,0,0.26458333,0,267.89582)" />
      <text
         xml:space="preserve"
         style="font-style:normal;font-variant:normal;font-weight:normal;font-stretch:normal;font-size:36.081px;line-height:0;font-family:'Techno Hideo';-inkscape-font-specification:'Techno Hideo';letter-spacing:0px;word-spacing:0px;display:inline;fill:#000000;fill-opacity:1;stroke:none;stroke-width:3.00676"
         x="30.388279"
         y="448.27362"
         id="text10823"
         transform="matrix(1.0227683,0.00474378,-0.00496237,0.97771553,0,0)"><tspan
           sodipodi:role="line"
           id="tspan10821"
           x="30.388279"
           y="448.27362"
           style="font-style:normal;font-variant:normal;font-weight:normal;font-stretch:normal;font-family:Impact;-inkscape-font-specification:Impact;letter-spacing:2.70609px;stroke-width:3.00676"
           dx="7.6139722"
           dy="2.1476865">Descomplicando a Tecnologia</tspan></text>
    </g>
  </g>
</svg>
